<svg height="512pt" viewBox="-55 0 512 512.00142" width="512pt" xmlns="http://www.w3.org/2000/svg"><path d="m160.105469 208.582031c-.277344-20.050781-8.269531-38.785156-22.496094-52.75-14.222656-13.964843-33.085937-21.578125-53.152344-21.527343-21.050781.085937-41.207031 9.046874-55.390625 24.605468-21.417968 20.859375-29.066406 69.84375-29.066406 108.929688 0 24.042968 2.699219 46.976562 7.808594 66.316406 5.4375 20.597656 13.058594 35.363281 22.652344 43.90625 13.945312 14.363281 32.609374 22.371094 52.640624 22.574219.257813.003906.511719.003906.769532.003906 19.683594 0 38.238281-7.652344 52.324218-21.597656 14.265626-14.121094 22.121094-32.890625 22.121094-52.851563 0-14.417968-4.132812-28.410156-11.949218-40.464844-6.613282-10.195312-6.382813-23.355468.585937-33.523437 8.824219-12.875 13.371094-27.957031 13.152344-43.621094zm0 0"/><path d="m386.558594 316.617188c-12.507813-15.566407-30.394532-25.277344-50.367188-27.351563-19.964844-2.074219-39.457031 3.753906-54.890625 16.414063-11.148437 9.144531-19.347656 21.214843-23.707031 34.902343-3.6875 11.578125-14.011719 19.746094-26.292969 20.808594-15.546875 1.34375-30.09375 7.394531-42.066406 17.496094-15.328125 12.933593-24.746094 30.992187-26.519531 50.847656-1.773438 19.851563 4.285156 39.296875 17.066406 54.75 13.417969 16.222656 33.128906 26.121094 54.15625 27.21875 1.789062.203125 3.628906.296875 5.511719.296875 29.304687 0 68.742187-23.613281 97.140625-46.90625 18.589844-15.25 34.605468-31.882812 46.320312-48.097656 12.476563-17.269532 19.058594-32.523438 19.582032-45.359375 2.257812-19.890625-3.386719-39.402344-15.933594-55.019531zm0 0"/><path d="m226.125 221.476562c14.441406 15.660157 28.082031 25.144532 40.558594 28.207032 7.566406 2.453125 15.320312 3.667968 23.035156 3.667968 11.707031 0 23.324219-2.800781 34.054688-8.34375 17.742187-9.160156 30.816406-24.757812 36.820312-43.917968 6.003906-19.15625 4.164062-39.421875-5.171875-57.0625-6.746094-12.742188-16.945313-23.175782-29.492187-30.171875-10.613282-5.917969-16.566407-17.65625-15.164063-29.90625 1.777344-15.503907-1.261719-30.964844-8.78125-44.703125-9.628906-17.59375-25.453125-30.414063-44.5625-36.101563-19.101563-5.6875-39.363281-3.613281-57.046875 5.839844-18.566406 9.921875-32.1875 27.269531-37.441406 47.660156-9.175782 28.453125 6.980468 75.324219 25.265625 109.871094 11.246093 21.25 24.363281 40.253906 37.925781 54.960937zm0 0"/></svg>