<?xml version="1.0" encoding="iso-8859-1"?>
<!-- Generator: Adobe Illustrator 19.0.0, SVG Export Plug-In . SVG Version: 6.00 Build 0)  -->
<svg version="1.1" id="Layer_1" xmlns="http://www.w3.org/2000/svg" xmlns:xlink="http://www.w3.org/1999/xlink" x="0px" y="0px"
	 viewBox="0 0 512 512" style="enable-background:new 0 0 512 512;" xml:space="preserve">
<g>
	<g>
		<rect x="128.138" width="255.718" height="45.311"/>
	</g>
</g>
<g>
	<g>
		<path d="M368.65,75.729H143.35c-28.812-0.001-52.253,23.441-52.253,52.254v4.062h255.716v323.641H91.098v4.062
			c0,28.812,23.44,52.253,52.253,52.253H368.65c28.812,0,52.253-23.44,52.253-52.253V127.983
			C420.902,99.169,397.462,75.729,368.65,75.729z"/>
	</g>
</g>
<g>
	<g>
		<path d="M215.326,243.664h-23.159c-19.991,0-36.255,16.264-36.255,36.255s16.264,36.254,36.255,36.254h23.159
			c19.991,0,36.255-16.263,36.255-36.254S235.317,243.664,215.326,243.664z"/>
	</g>
</g>
<g>
	<g>
		<path d="M91.098,162.46v262.807h225.298V162.46H91.098z M131.873,396.355v-30.417h143.746v30.417H131.873z M215.326,346.591
			h-23.159c-36.763,0-66.673-29.908-66.673-66.672c0-35.546,27.962-64.678,63.043-66.569v-20.963h30.417v20.963
			c35.081,1.891,63.043,31.025,63.043,66.569C281.998,316.683,252.089,346.591,215.326,346.591z"/>
	</g>
</g>
<g>
</g>
<g>
</g>
<g>
</g>
<g>
</g>
<g>
</g>
<g>
</g>
<g>
</g>
<g>
</g>
<g>
</g>
<g>
</g>
<g>
</g>
<g>
</g>
<g>
</g>
<g>
</g>
<g>
</g>
</svg>
