<?xml version="1.0" encoding="utf-8"?>
<!-- Svg Vector Icons : http://www.onlinewebfonts.com/icon -->
<!DOCTYPE svg PUBLIC "-//W3C//DTD SVG 1.1//EN" "http://www.w3.org/Graphics/SVG/1.1/DTD/svg11.dtd">
<svg version="1.1" xmlns="http://www.w3.org/2000/svg" xmlns:xlink="http://www.w3.org/1999/xlink" x="0px" y="0px" viewBox="0 0 1000 1000" enable-background="new 0 0 1000 1000" xml:space="preserve">
<metadata> Svg Vector Icons : http://www.onlinewebfonts.com/icon </metadata>
<g><g transform="translate(0.000000,511.000000) scale(0.100000,-0.100000)"><path d="M2919.3,4970.3c-242-76.5-457.1-254.4-562.6-465.4c-113.8-229.6-107.6,47.6-107.6-4393.2c0-3342.5,6.2-4105.7,29-4190.5c86.9-326.8,326.8-575,653.6-674.3c130.3-39.3,190.3-39.3,2109.7-35.2l1975.3,6.2l117.9,47.6c279.2,111.7,488.1,339.2,575,620.5c41.4,130.3,41.4,200.6,41.4,4221.6c0,3346.6-6.2,4105.7-29,4190.5c-88.9,333-351.6,597.7-682.6,684.6c-84.8,22.8-465.4,29-2049.7,26.9C3130.2,5009.6,3039.2,5007.6,2919.3,4970.3z M7016.7,4523.6c105.5-57.9,188.2-140.6,246.1-246.1c43.4-82.7,43.4-97.2,49.6-1410.6l6.2-1330H5000H2681.4l6.2,1330c6.2,1249.3,8.3,1332,45.5,1400.3c74.5,140.6,200.6,246.1,343.3,291.6c29,8.3,908,14.5,1954.6,12.4l1902.9-4.1L7016.7,4523.6z M7312.5-1435.4l-6.2-2539.9l-45.5-82.7c-51.7-97.2-153-196.5-254.4-250.3c-68.3-37.2-159.3-39.3-2006.3-39.3H3066.1l-82.7,43.4c-105.5,57.9-188.2,140.7-246.1,246.1l-43.4,82.7l-6.2,2539.9l-4.1,2537.9H5000h2316.6L7312.5-1435.4z"/><path d="M3188.1,2302.1c-117.9-47.6-171.7-225.4-99.3-328.9c66.2-95.1,136.5-105.5,670.1-105.5c533.6,0,604,10.4,670.2,105.5c53.8,78.6,43.4,192.3-26.9,271l-60,68.3l-556.4,4.1C3481.9,2318.7,3210.9,2312.5,3188.1,2302.1z"/><path d="M3146.8,713.6c-113.8-91-122-225.5-20.7-326.8l70.3-70.3h552.3c477.8,0,560.5,4.1,610.2,35.2c120,70.3,140.6,239.9,43.4,339.2l-60,60h-577.1C3252.3,750.9,3186.1,746.7,3146.8,713.6z"/></g></g>
</svg>